[Header]
FileType HTR
DataType HTRS
FileVersion 1
NumSegments 28
NumFrames 5
DataFrameRate 24
EulerRotationOrder ZYX
CalibrationUnits mm
RotationUnits Degrees
GlobalAxisofGravity Y
BoneLengthAxis Y
ScaleFactor 1.0
[SegmentNames&Hierarchy]
waist	GLOBAL
chest	waist
head	chest
joint2	chest
right_shoulder1	joint2
right_elbow1	right_shoulder1
right_wrist1	right_elbow1
right_hand1	right_wrist1
right_finger3	right_hand1
right_finger4	right_hand1
right_finger5	right_hand1
joint3	chest
right_shoulder2	joint3
right_elbow2	right_shoulder2
right_wrist2	right_elbow2
right_hand2	right_wrist2
right_finger6	right_hand2
right_finger7	right_hand2
right_finger8	right_hand2
Center_pelvis	waist
left_pelvs	Center_pelvis
left_leg	left_pelvs
left_knee	left_leg
left_foot	left_knee
right_pelvis	Center_pelvis
right_leg	right_pelvis
right_knee	right_leg
right_foot	right_knee
[BasePosition]
waist	0	0	0	179.9999991	0	91.33221985	1
chest	0	0	0	-2.307808268e-010	-1.984983424e-008	1.332219854	1
head	0	0	0	180	-1.481061187e-024	90	1
joint2	0	0	0	4.615476202e-010	-1.707085745e-006	90	1
right_shoulder1	0	0	0	1.916575325e-008	-1.983803253e-008	-88.02506599	1
right_elbow1	0	0	0	-180	-1.948815659e-008	-12.92899665	1
right_wrist1	0	0	0	3.256551172e-010	1.942478841e-008	1.920938916	1
right_hand1	0	0	0	136.2194085	85.17676588	-133.4832578	1
right_finger3	0	0	0	154.4596717	79.84057755	147.6247455	1
right_finger4	0	0	0	154.4596717	79.84057755	147.6247455	1
right_finger5	0	0	0	154.4596717	79.84057755	147.6247455	1
joint3	0	0	0	-180	-1.89575832e-022	90	1
right_shoulder2	0	0	0	6.774897105e-015	-7.012540931e-015	-88.02506599	1
right_elbow2	0	0	0	-180	-6.888863384e-015	-12.92899665	1
right_wrist2	0	0	0	-1.240805042e-012	-7.401196581e-011	1.920938916	1
right_hand2	0	0	0	136.2194085	85.17676588	-133.4832578	1
right_finger6	0	0	0	154.4596717	79.84057755	147.6247455	1
right_finger7	0	0	0	154.4596717	79.84057755	147.6247455	1
right_finger8	0	0	0	154.4596717	79.84057755	147.6247455	1
Center_pelvis	0	0	0	-180	-8.537716493e-007	89.87586122	1
left_pelvs	0	0	0	0	0	-1.456358634	1
left_leg	0	0	0	179.9999991	0	88.69804733	1
left_knee	0	0	0	-180	-7.863991589e-009	-2.076172838	1
left_foot	0	0	0	179.9999985	-3.055580289e-010	-90.77422016	1
right_pelvis	0	0	0	0	0	-2.39554958	1
right_leg	0	0	0	0	0	-87.75885638	1
right_knee	0	0	0	179.9999991	3.702652968e-022	-2.076172838	1
right_foot	0	0	0	180	-7.405305937e-025	-90.77422016	1
[waist]
20	0	-3.152148962	0	1.823863029	-13.80161953	1.340749979	1.0
21	0	-3.152148962	0	1.823863029	-13.80161953	1.340749979	1.0
22	0	-3.152148962	0	1.823863029	-13.80161953	1.340749979	1.0
23	0	-3.152148962	0	1.823863029	-13.80161953	1.340749979	1.0
24	0	-3.152148962	0	1.823863029	-13.80161953	1.340749979	1.0
[chest]
20	20.21155548	-0.4854421318	-11.83207607	6.712238789	28.11531639	-2.788740396	1.0
21	20.73704529	-0.4942241311	-12.1051712	9.706122398	28.47103882	-2.776836157	1.0
22	21.27327347	-0.5031856298	-12.38385105	12.76120663	28.83403206	-2.76468873	1.0
23	21.81259346	-0.5121988654	-12.66413689	15.83390141	29.19911766	-2.75247097	1.0
24	22.34599113	-0.5211129189	-12.94134235	18.87283707	29.56019402	-2.74038744	1.0
[head]
20	20.62318993	0.1433748007	1.49219501	-5.263031006	-9.211168289	-0.9324912429	1.0
21	20.62318993	0.1433748007	1.49219501	-7.597510815	-7.246357441	-0.9726911783	1.0
22	20.62318993	0.1433748007	1.49219501	-9.853128433	-5.347921371	-1.011533141	1.0
23	20.62318993	0.1433748007	1.49219501	-11.93282509	-3.5975492	-1.047345638	1.0
24	20.62318993	0.1433748007	1.49219501	-13.67438221	-2.131771088	-1.077335358	1.0
[joint2]
20	-1.784083247	17.00974464	-0.01806697063	-4.119259834	-0.3309130371	-0.5564337373	1.0
21	-1.75228548	17.01053619	-0.01032401249	0.1553696692	-0.248108089	-0.4171963036	1.0
22	-1.721561909	17.01130104	-0.002842624905	4.285596371	-0.1681004167	-0.2826625407	1.0
23	-1.693234444	17.01200676	0.004055272788	8.093695641	-0.09433270991	-0.1586214155	1.0
24	-1.669512868	17.01259804	0.009831637144	11.28263378	-0.03255894035	-0.05474819243	1.0
[right_shoulder1]
20	14.91590023	0.6211000085	0.9477797747	-4.134935379	-16.25972176	-5.843840599	1.0
21	14.91590023	0.6211000085	0.9477797747	-4.014704227	-10.69694614	-8.051930428	1.0
22	14.91590023	0.6211000085	0.9477797747	-3.898535013	-5.322087765	-10.18542862	1.0
23	14.91590023	0.6211000085	0.9477797747	-3.791425943	-0.3664269745	-12.15252972	1.0
24	14.91590023	0.6211000085	0.9477797747	-3.70173192	3.783489466	-13.79979897	1.0
[right_elbow1]
20	-13.64346027	1.083028078	-0.5017899871	4.745819569	16.15410042	-0.2853032351	1.0
21	-13.64346027	1.083028078	-0.5017899871	4.785380363	17.62156105	-0.1562617421	1.0
22	-13.64346027	1.083028078	-0.5017899871	4.823604584	19.03944588	-0.03157947585	1.0
23	-13.64346027	1.083028078	-0.5017899871	4.858847618	20.34674644	0.08337853104	1.0
24	-13.64346027	1.083028078	-0.5017899871	4.8883605	21.44149399	0.1796454489	1.0
[right_wrist1]
20	-10.20346165	3.787121534	0.9509416819	-0.5931747556	17.83845901	-5.853904247	1.0
21	-10.4211092	2.840676785	0.8667657375	0.5085273981	16.2311039	-2.42851162	1.0
22	-10.63140488	1.926204443	0.7854335308	1.573012352	14.67804623	0.8811661005	1.0
23	-10.82530117	1.083053946	0.71044451	2.554475784	13.24611568	3.932714224	1.0
24	-10.98766899	0.3769917488	0.6476479769	3.376362324	12.04700375	6.488109112	1.0
[right_hand1]
20	-7.870647907	-0.6475094557	0.1588414907	12.9097538	26.88744545	19.1565094	1.0
21	-7.870647907	-0.6475094557	0.1588414907	11.02367783	27.60611153	18.64034462	1.0
22	-7.870647907	-0.6475094557	0.1588414907	9.20131588	28.30050087	18.1416111	1.0
23	-7.870647907	-0.6475094557	0.1588414907	7.521084785	28.94073296	17.68177795	1.0
24	-7.870647907	-0.6475094557	0.1588414907	6.114043713	29.47687149	17.29670715	1.0
[right_finger3]
20	10.07660961	3.347558022	-1.489187002	-84.28975677	13.1826601	87.76701355	1.0
21	10.07660961	3.347558022	-1.489187002	-84.28975677	13.1826601	87.76701355	1.0
22	10.07660961	3.347558022	-1.489187002	-84.28975677	13.1826601	87.76701355	1.0
23	10.07660961	3.347558022	-1.489187002	-84.28975677	13.1826601	87.76701355	1.0
24	10.07660961	3.347558022	-1.489187002	-84.28975677	13.1826601	87.76701355	1.0
[right_finger4]
20	-1.201135993	3.376283169	11.27150059	-190.2575073	16.25144958	124.4265976	1.0
21	-1.201135993	3.376283169	11.27150059	-190.2575073	16.25144958	124.4265976	1.0
22	-1.201135993	3.376283169	11.27150059	-190.2575073	16.25144958	124.4265976	1.0
23	-1.201135993	3.376283169	11.27150059	-190.2575073	16.25144958	124.4265976	1.0
24	-1.201135993	3.376283169	11.27150059	-190.2575073	16.25144958	124.4265976	1.0
[right_finger5]
20	-6.853637218	4.493112087	-5.936322212	34.39846039	4.028532028	79.4876709	1.0
21	-6.853637218	4.493112087	-5.936322212	34.39846039	4.028532028	79.4876709	1.0
22	-6.853637218	4.493112087	-5.936322212	34.39846039	4.028532028	79.4876709	1.0
23	-6.853637218	4.493112087	-5.936322212	34.39846039	4.028532028	79.4876709	1.0
24	-6.853637218	4.493112087	-5.936322212	34.39846039	4.028532028	79.4876709	1.0
[joint3]
20	-0.8072476387	-16.99176025	0.219798252	-23.28064537	-0.702383101	-1.180621386	1.0
21	-1.019885182	-16.99704742	0.1680196524	-27.55526543	-0.7852230668	-1.319865227	1.0
22	-1.225339651	-17.0021553	0.1179901883	-31.68548203	-0.865264535	-1.454405308	1.0
23	-1.414770007	-17.00686646	0.0718626529	-35.49357605	-0.9390634298	-1.578452229	1.0
24	-1.573400736	-17.01081085	0.03323502466	-38.68250656	-1.000863194	-1.682330251	1.0
[right_shoulder2]
20	-14.91590023	-0.6211000085	-0.9477797747	-1.287082434	-19.80730438	-4.232955933	1.0
21	-14.91590023	-0.6211000085	-0.9477797747	-0.9650135636	-22.85275078	-3.173735857	1.0
22	-14.91590023	-0.6211000085	-0.9477797747	-0.6538245678	-25.79531479	-2.15029788	1.0
23	-14.91590023	-0.6211000085	-0.9477797747	-0.3669059277	-28.5083828	-1.206680059	1.0
24	-14.91590023	-0.6211000085	-0.9477797747	-0.1266376227	-30.78032875	-0.416485697	1.0
[right_elbow2]
20	12.23892593	-1.616335154	1.449198604	16.12716103	18.83113861	21.67595291	1.0
21	12.59038544	-1.482884884	1.212126851	13.95132828	21.02176666	16.54155731	1.0
22	12.92997169	-1.353942633	0.9830636978	11.84899712	23.13838959	11.58060741	1.0
23	13.24307251	-1.235056877	0.7718657851	9.910632133	25.0899334	7.006572723	1.0
24	13.50526714	-1.135500789	0.5950067043	8.287427902	26.7241745	3.176233768	1.0
[right_wrist2]
20	11.3734808	-5.659012794	-0.5602906942	-7.773777962	16.8061676	-29.48766518	1.0
21	11.3734808	-5.659012794	-0.5602906942	-8.275220871	17.7215538	-30.71552467	1.0
22	11.3734808	-5.659012794	-0.5602906942	-8.759725571	18.60601616	-31.90190315	1.0
23	11.3734808	-5.659012794	-0.5602906942	-9.206441879	19.42149734	-32.99575424	1.0
24	11.3734808	-5.659012794	-0.5602906942	-9.580525398	20.10438919	-33.91175461	1.0
[right_hand2]
20	8.313047409	0.02588134073	-0.2132965922	21.27508163	20.98906708	29.07408905	1.0
21	8.313047409	0.02588134073	-0.2132965922	21.77160263	20.94016075	27.68761063	1.0
22	8.313047409	0.02588134073	-0.2132965922	22.25135231	20.89290428	26.34796333	1.0
23	8.313047409	0.02588134073	-0.2132965922	22.69368362	20.84933472	25.1128006	1.0
24	8.313047409	0.02588134073	-0.2132965922	23.06409836	20.81285095	24.07846451	1.0
[right_finger6]
20	-10.07660961	-3.347558022	1.489187002	-83.6856308	28.25860023	89.45963287	1.0
21	-10.07660961	-3.347558022	1.489187002	-83.6856308	28.25860023	89.45963287	1.0
22	-10.07660961	-3.347558022	1.489187002	-83.6856308	28.25860023	89.45963287	1.0
23	-10.07660961	-3.347558022	1.489187002	-83.6856308	28.25860023	89.45963287	1.0
24	-10.07660961	-3.347558022	1.489187002	-83.6856308	28.25860023	89.45963287	1.0
[right_finger7]
20	1.201135993	-3.376283169	-11.27150059	-196.8155975	9.285179138	95.4122467	1.0
21	1.201135993	-3.376283169	-11.27150059	-196.8155975	9.285179138	95.4122467	1.0
22	1.201135993	-3.376283169	-11.27150059	-196.8155975	9.285179138	95.4122467	1.0
23	1.201135993	-3.376283169	-11.27150059	-196.8155975	9.285179138	95.4122467	1.0
24	1.201135993	-3.376283169	-11.27150059	-196.8155975	9.285179138	95.4122467	1.0
[right_finger8]
20	6.853637218	-4.493112087	5.936322212	33.30503082	-9.988982201	100.1356964	1.0
21	6.853637218	-4.493112087	5.936322212	33.30503082	-9.988982201	100.1356964	1.0
22	6.853637218	-4.493112087	5.936322212	33.30503082	-9.988982201	100.1356964	1.0
23	6.853637218	-4.493112087	5.936322212	33.30503082	-9.988982201	100.1356964	1.0
24	6.853637218	-4.493112087	5.936322212	33.30503082	-9.988982201	100.1356964	1.0
[Center_pelvis]
20	-5.61697197	-0.3765999973	2.046987057	0	0	0	1.0
21	-5.61697197	-0.3765999973	2.046987057	0	0	0	1.0
22	-5.61697197	-0.3765999973	2.046987057	0	0	0	1.0
23	-5.61697197	-0.3765999973	2.046987057	0	0	0	1.0
24	-5.61697197	-0.3765999973	2.046987057	0	0	0	1.0
[left_pelvs]
20	11.08985996	-0.01586684026	-0.09214995801	9.15500164	-3.433412313	10.59442711	1.0
21	11.08985996	-0.01586684026	-0.09214995801	4.363105297	-2.574263096	7.943363667	1.0
22	11.08985996	-0.01586684026	-0.09214995801	-0.2669124305	-1.744137645	5.381858349	1.0
23	11.08985996	-0.01586684026	-0.09214995801	-4.535824299	-0.9787557125	3.02013135	1.0
24	11.08985996	-0.01586684026	-0.09214995801	-8.110651016	-0.3378175795	1.042398572	1.0
[left_leg]
20	8.450808053e-008	-5.682914734	0.3641465902	5.371546268	-9.334999084	-0.2605077028	1.0
21	8.450808053e-008	-5.682914734	0.3641465902	4.027414799	-19.96742058	-0.1953203827	1.0
22	8.450808053e-008	-5.682914734	0.3641465902	2.728689671	-30.24066353	-0.1323352158	1.0
23	8.450808053e-008	-5.682914734	0.3641465902	1.531255603	-39.71266937	-0.0742623955	1.0
24	8.450808053e-008	-5.682914734	0.3641465902	0.5285130143	-47.64461899	-0.02563166805	1.0
[left_knee]
20	-10.6974802	0.03457061946	-6.811455844e-009	18.22122574	-45.39055634	-6.606020927	1.0
21	-10.6974802	0.03457061946	-6.811455844e-009	22.93523788	-44.16390228	-6.395883083	1.0
22	-10.6974802	0.03457061946	-6.811455844e-009	27.49000359	-42.97868347	-6.192844391	1.0
23	-10.6974802	0.03457061946	-6.811455844e-009	31.68953323	-41.8859024	-6.005640984	1.0
24	-10.6974802	0.03457061946	-6.811455844e-009	35.20626068	-40.97080231	-5.848875046	1.0
[left_foot]
20	-14.54718971	-0.01193540078	1.933258886e-009	-22.95061111	16.10094261	-5.95450592	1.0
21	-14.54718971	-0.01193540078	1.933258886e-009	-19.86364937	20.0621357	-7.37494278	1.0
22	-14.54718971	-0.01193540078	1.933258886e-009	-16.88096809	23.88951492	-8.747394562	1.0
23	-14.54718971	-0.01193540078	1.933258886e-009	-14.13091469	27.41838646	-10.01280689	1.0
24	-14.54718971	-0.01193540078	1.933258886e-009	-11.82799435	30.37349701	-11.07247353	1.0
[right_pelvis]
20	-10.58689976	0.4465442896	0.2088862956	-3.2902143	6.91317719e-017	7.13432312	1.0
21	-10.58689976	0.4465442896	0.2088862956	-0.394274652	5.183280147e-017	5.349089146	1.0
22	-10.58689976	0.4465442896	0.2088862956	2.403835297	3.511822422e-017	3.624162436	1.0
23	-10.58689976	0.4465442896	0.2088862956	4.983714104	1.970725053e-017	2.033766747	1.0
24	-10.58689976	0.4465442896	0.2088862956	7.144128799	6.80195953e-018	0.701954782	1.0
[right_leg]
20	0.09169664979	-5.593488693	0.06310816854	0.3372275531	26.01858139	-6.725512981	1.0
21	0.09169664979	-5.593488693	0.06310816854	0.2528425157	31.88719368	-5.042575836	1.0
22	0.09169664979	-5.593488693	0.06310816854	0.1713081002	37.55755234	-3.416490793	1.0
23	0.09169664979	-5.593488693	0.06310816854	0.09613277763	42.78566742	-1.917227983	1.0
24	0.09169664979	-5.593488693	0.06310816854	0.03318023309	47.16373825	-0.6617314219	1.0
[right_knee]
20	10.69750977	-0.03459575027	-4.718447855e-015	0	-3.371487617	0	1.0
21	10.69750977	-0.03459575027	-4.718447855e-015	0	-3.59660697	0	1.0
22	10.69750977	-0.03459575027	-4.718447855e-015	0	-3.814121246	0	1.0
23	10.69750977	-0.03459575027	-4.718447855e-015	0	-4.014671803	0	1.0
24	10.69750977	-0.03459575027	-4.718447855e-015	0	-4.18261385	0	1.0
[right_foot]
20	14.54718971	0.01191106997	1.774880104e-010	3.516645908	0	0	1.0
21	14.54718971	0.01191106997	1.774880104e-010	5.526996136	0	0	1.0
22	14.54718971	0.01191106997	1.774880104e-010	7.469434738	0	0	1.0
23	14.54718971	0.01191106997	1.774880104e-010	9.260377884	0	0	1.0
24	14.54718971	0.01191106997	1.774880104e-010	10.76012993	0	0	1.0
[EndOfFile]
